<svg width="375" height="867" viewBox="0 0 375 867" fill="none" xmlns="http://www.w3.org/2000/svg">
<rect width="375" height="867" fill="#163042"/>
<rect x="27" y="71" width="325" height="37" rx="4" fill="#426189" fill-opacity="0.2"/>
<path d="M85.7188 91.085H80.1729V95.6201H86.6152V97H78.4854V84.2031H86.5273V85.5918H80.1729V89.7051H85.7188V91.085ZM89.999 87.4902L90.0518 88.6855C90.7783 87.7715 91.7275 87.3145 92.8994 87.3145C94.9092 87.3145 95.9229 88.4482 95.9404 90.7158V97H94.3145V90.707C94.3086 90.0215 94.1504 89.5146 93.8398 89.1865C93.5352 88.8584 93.0576 88.6943 92.4072 88.6943C91.8799 88.6943 91.417 88.835 91.0186 89.1162C90.6201 89.3975 90.3096 89.7666 90.0869 90.2236V97H88.4609V87.4902H89.999ZM100.599 85.1875V87.4902H102.374V88.7471H100.599V94.6445C100.599 95.0254 100.678 95.3125 100.836 95.5059C100.994 95.6934 101.264 95.7871 101.645 95.7871C101.832 95.7871 102.09 95.752 102.418 95.6816V97C101.99 97.1172 101.574 97.1758 101.17 97.1758C100.443 97.1758 99.8955 96.9561 99.5264 96.5166C99.1572 96.0771 98.9727 95.4531 98.9727 94.6445V88.7471H97.2412V87.4902H98.9727V85.1875H100.599ZM108.228 97.1758C106.938 97.1758 105.89 96.7539 105.081 95.9102C104.272 95.0605 103.868 93.9268 103.868 92.5088V92.21C103.868 91.2666 104.047 90.4258 104.404 89.6875C104.768 88.9434 105.271 88.3633 105.916 87.9473C106.566 87.5254 107.27 87.3145 108.025 87.3145C109.262 87.3145 110.223 87.7217 110.908 88.5361C111.594 89.3506 111.937 90.5166 111.937 92.0342V92.7109H105.494C105.518 93.6484 105.79 94.4072 106.312 94.9873C106.839 95.5615 107.507 95.8486 108.315 95.8486C108.89 95.8486 109.376 95.7314 109.774 95.4971C110.173 95.2627 110.521 94.9521 110.82 94.5654L111.813 95.3389C111.017 96.5635 109.821 97.1758 108.228 97.1758ZM108.025 88.6504C107.369 88.6504 106.818 88.8906 106.373 89.3711C105.928 89.8457 105.652 90.5137 105.547 91.375H110.311V91.252C110.264 90.4258 110.041 89.7871 109.643 89.3359C109.244 88.8789 108.705 88.6504 108.025 88.6504ZM118.423 88.9492C118.177 88.9082 117.91 88.8877 117.623 88.8877C116.557 88.8877 115.833 89.3418 115.452 90.25V97H113.826V87.4902H115.408L115.435 88.5889C115.968 87.7393 116.724 87.3145 117.702 87.3145C118.019 87.3145 118.259 87.3555 118.423 87.4375V88.9492ZM129.928 94.4775C129.928 94.0381 129.761 93.6982 129.427 93.458C129.099 93.2119 128.521 93.001 127.695 92.8252C126.875 92.6494 126.222 92.4385 125.735 92.1924C125.255 91.9463 124.897 91.6533 124.663 91.3135C124.435 90.9736 124.32 90.5693 124.32 90.1006C124.32 89.3213 124.648 88.6621 125.305 88.123C125.967 87.584 126.811 87.3145 127.836 87.3145C128.914 87.3145 129.787 87.5928 130.455 88.1494C131.129 88.7061 131.466 89.418 131.466 90.2852H129.831C129.831 89.8398 129.641 89.4561 129.26 89.1338C128.885 88.8115 128.41 88.6504 127.836 88.6504C127.244 88.6504 126.781 88.7793 126.447 89.0371C126.113 89.2949 125.946 89.6318 125.946 90.0479C125.946 90.4404 126.102 90.7363 126.412 90.9355C126.723 91.1348 127.282 91.3252 128.091 91.5068C128.905 91.6885 129.564 91.9053 130.068 92.1572C130.572 92.4092 130.944 92.7139 131.185 93.0713C131.431 93.4229 131.554 93.8535 131.554 94.3633C131.554 95.2129 131.214 95.8955 130.534 96.4111C129.854 96.9209 128.973 97.1758 127.889 97.1758C127.127 97.1758 126.453 97.041 125.867 96.7715C125.281 96.502 124.821 96.127 124.487 95.6465C124.159 95.1602 123.995 94.6357 123.995 94.0732H125.621C125.65 94.6182 125.867 95.0518 126.271 95.374C126.682 95.6904 127.221 95.8486 127.889 95.8486C128.504 95.8486 128.996 95.7256 129.365 95.4795C129.74 95.2275 129.928 94.8936 129.928 94.4775ZM137.618 97.1758C136.329 97.1758 135.28 96.7539 134.472 95.9102C133.663 95.0605 133.259 93.9268 133.259 92.5088V92.21C133.259 91.2666 133.438 90.4258 133.795 89.6875C134.158 88.9434 134.662 88.3633 135.307 87.9473C135.957 87.5254 136.66 87.3145 137.416 87.3145C138.652 87.3145 139.613 87.7217 140.299 88.5361C140.984 89.3506 141.327 90.5166 141.327 92.0342V92.7109H134.885C134.908 93.6484 135.181 94.4072 135.702 94.9873C136.229 95.5615 136.897 95.8486 137.706 95.8486C138.28 95.8486 138.767 95.7314 139.165 95.4971C139.563 95.2627 139.912 94.9521 140.211 94.5654L141.204 95.3389C140.407 96.5635 139.212 97.1758 137.618 97.1758ZM137.416 88.6504C136.76 88.6504 136.209 88.8906 135.764 89.3711C135.318 89.8457 135.043 90.5137 134.938 91.375H139.701V91.252C139.654 90.4258 139.432 89.7871 139.033 89.3359C138.635 88.8789 138.096 88.6504 137.416 88.6504ZM149.088 97C148.994 96.8125 148.918 96.4785 148.859 95.998C148.104 96.7832 147.201 97.1758 146.152 97.1758C145.215 97.1758 144.444 96.9121 143.841 96.3848C143.243 95.8516 142.944 95.1777 142.944 94.3633C142.944 93.373 143.319 92.6055 144.069 92.0605C144.825 91.5098 145.886 91.2344 147.251 91.2344H148.833V90.4873C148.833 89.9189 148.663 89.4678 148.323 89.1338C147.983 88.7939 147.482 88.624 146.82 88.624C146.24 88.624 145.754 88.7705 145.361 89.0635C144.969 89.3564 144.772 89.7109 144.772 90.127H143.138C143.138 89.6523 143.305 89.1953 143.639 88.7559C143.979 88.3105 144.436 87.959 145.01 87.7012C145.59 87.4434 146.226 87.3145 146.917 87.3145C148.013 87.3145 148.871 87.5898 149.492 88.1406C150.113 88.6855 150.436 89.4385 150.459 90.3994V94.7764C150.459 95.6494 150.57 96.3438 150.793 96.8594V97H149.088ZM146.39 95.7607C146.899 95.7607 147.383 95.6289 147.84 95.3652C148.297 95.1016 148.628 94.7588 148.833 94.3369V92.3857H147.559C145.566 92.3857 144.57 92.9688 144.57 94.1348C144.57 94.6445 144.74 95.043 145.08 95.3301C145.42 95.6172 145.856 95.7607 146.39 95.7607ZM157.604 88.9492C157.358 88.9082 157.092 88.8877 156.805 88.8877C155.738 88.8877 155.015 89.3418 154.634 90.25V97H153.008V87.4902H154.59L154.616 88.5889C155.149 87.7393 155.905 87.3145 156.884 87.3145C157.2 87.3145 157.44 87.3555 157.604 87.4375V88.9492ZM162.746 95.8486C163.326 95.8486 163.833 95.6729 164.267 95.3213C164.7 94.9697 164.94 94.5303 164.987 94.0029H166.525C166.496 94.5479 166.309 95.0664 165.963 95.5586C165.617 96.0508 165.154 96.4434 164.574 96.7363C164 97.0293 163.391 97.1758 162.746 97.1758C161.451 97.1758 160.42 96.7451 159.652 95.8838C158.891 95.0166 158.51 93.833 158.51 92.333V92.0605C158.51 91.1348 158.68 90.3115 159.02 89.5908C159.359 88.8701 159.846 88.3105 160.479 87.9121C161.117 87.5137 161.87 87.3145 162.737 87.3145C163.804 87.3145 164.688 87.6338 165.392 88.2725C166.101 88.9111 166.479 89.7402 166.525 90.7598H164.987C164.94 90.1445 164.706 89.6406 164.284 89.248C163.868 88.8496 163.353 88.6504 162.737 88.6504C161.911 88.6504 161.27 88.9492 160.812 89.5469C160.361 90.1387 160.136 90.9971 160.136 92.1221V92.4297C160.136 93.5254 160.361 94.3691 160.812 94.9609C161.264 95.5527 161.908 95.8486 162.746 95.8486ZM169.979 88.6416C170.7 87.7568 171.638 87.3145 172.792 87.3145C174.802 87.3145 175.815 88.4482 175.833 90.7158V97H174.207V90.707C174.201 90.0215 174.043 89.5146 173.732 89.1865C173.428 88.8584 172.95 88.6943 172.3 88.6943C171.772 88.6943 171.31 88.835 170.911 89.1162C170.513 89.3975 170.202 89.7666 169.979 90.2236V97H168.354V83.5H169.979V88.6416Z" fill="#3E526C"/>
<rect x="25" y="134" width="325" height="175" rx="4" fill="#426189" fill-opacity="0.2"/>
<path d="M84.3115 191.203H86.0078V200.265C86.0078 201.489 85.6387 202.447 84.9004 203.139C84.168 203.83 83.1895 204.176 81.9648 204.176C80.6934 204.176 79.7031 203.851 78.9941 203.2C78.2852 202.55 77.9307 201.639 77.9307 200.467H79.6182C79.6182 201.199 79.8174 201.771 80.2158 202.181C80.6201 202.591 81.2031 202.796 81.9648 202.796C82.6621 202.796 83.2246 202.576 83.6523 202.137C84.0859 201.697 84.3057 201.082 84.3115 200.291V191.203ZM94.498 204C94.4043 203.812 94.3281 203.479 94.2695 202.998C93.5137 203.783 92.6113 204.176 91.5625 204.176C90.625 204.176 89.8545 203.912 89.251 203.385C88.6533 202.852 88.3545 202.178 88.3545 201.363C88.3545 200.373 88.7295 199.605 89.4795 199.061C90.2354 198.51 91.2959 198.234 92.6611 198.234H94.2432V197.487C94.2432 196.919 94.0732 196.468 93.7334 196.134C93.3936 195.794 92.8926 195.624 92.2305 195.624C91.6504 195.624 91.1641 195.771 90.7715 196.063C90.3789 196.356 90.1826 196.711 90.1826 197.127H88.5479C88.5479 196.652 88.7148 196.195 89.0488 195.756C89.3887 195.311 89.8457 194.959 90.4199 194.701C91 194.443 91.6357 194.314 92.3271 194.314C93.4229 194.314 94.2812 194.59 94.9023 195.141C95.5234 195.686 95.8457 196.438 95.8691 197.399V201.776C95.8691 202.649 95.9805 203.344 96.2031 203.859V204H94.498ZM91.7998 202.761C92.3096 202.761 92.793 202.629 93.25 202.365C93.707 202.102 94.0381 201.759 94.2432 201.337V199.386H92.9688C90.9766 199.386 89.9805 199.969 89.9805 201.135C89.9805 201.645 90.1504 202.043 90.4902 202.33C90.8301 202.617 91.2666 202.761 91.7998 202.761ZM99.9561 194.49L100.009 195.686C100.735 194.771 101.685 194.314 102.856 194.314C104.866 194.314 105.88 195.448 105.897 197.716V204H104.271V197.707C104.266 197.021 104.107 196.515 103.797 196.187C103.492 195.858 103.015 195.694 102.364 195.694C101.837 195.694 101.374 195.835 100.976 196.116C100.577 196.397 100.267 196.767 100.044 197.224V204H98.418V194.49H99.9561ZM115.012 196.811H116.233C117.001 196.799 117.604 196.597 118.044 196.204C118.483 195.812 118.703 195.281 118.703 194.613C118.703 193.113 117.956 192.363 116.462 192.363C115.759 192.363 115.196 192.565 114.774 192.97C114.358 193.368 114.15 193.898 114.15 194.561H112.524C112.524 193.547 112.894 192.706 113.632 192.038C114.376 191.364 115.319 191.027 116.462 191.027C117.669 191.027 118.615 191.347 119.301 191.985C119.986 192.624 120.329 193.512 120.329 194.648C120.329 195.205 120.147 195.744 119.784 196.266C119.427 196.787 118.938 197.177 118.316 197.435C119.02 197.657 119.562 198.026 119.942 198.542C120.329 199.058 120.522 199.688 120.522 200.432C120.522 201.58 120.147 202.491 119.397 203.165C118.647 203.839 117.672 204.176 116.471 204.176C115.27 204.176 114.291 203.851 113.535 203.2C112.785 202.55 112.41 201.691 112.41 200.625H114.045C114.045 201.299 114.265 201.838 114.704 202.242C115.144 202.646 115.732 202.849 116.471 202.849C117.256 202.849 117.856 202.644 118.272 202.233C118.688 201.823 118.896 201.234 118.896 200.467C118.896 199.723 118.668 199.151 118.211 198.753C117.754 198.354 117.095 198.149 116.233 198.138H115.012V196.811ZM130.779 198.542C130.779 200.446 130.454 201.861 129.804 202.787C129.153 203.713 128.137 204.176 126.754 204.176C125.389 204.176 124.378 203.725 123.722 202.822C123.065 201.914 122.726 200.561 122.702 198.762V196.591C122.702 194.71 123.027 193.312 123.678 192.398C124.328 191.484 125.348 191.027 126.736 191.027C128.113 191.027 129.127 191.47 129.777 192.354C130.428 193.233 130.762 194.593 130.779 196.433V198.542ZM129.153 196.318C129.153 194.941 128.96 193.939 128.573 193.312C128.187 192.68 127.574 192.363 126.736 192.363C125.904 192.363 125.298 192.677 124.917 193.304C124.536 193.931 124.34 194.895 124.328 196.195V198.797C124.328 200.18 124.527 201.202 124.926 201.864C125.33 202.521 125.939 202.849 126.754 202.849C127.557 202.849 128.151 202.538 128.538 201.917C128.931 201.296 129.136 200.317 129.153 198.981V196.318Z" fill="white"/>
<path d="M87.3115 280.203H89.0078V289.265C89.0078 290.489 88.6387 291.447 87.9004 292.139C87.168 292.83 86.1895 293.176 84.9648 293.176C83.6934 293.176 82.7031 292.851 81.9941 292.2C81.2852 291.55 80.9307 290.639 80.9307 289.467H82.6182C82.6182 290.199 82.8174 290.771 83.2158 291.181C83.6201 291.591 84.2031 291.796 84.9648 291.796C85.6621 291.796 86.2246 291.576 86.6523 291.137C87.0859 290.697 87.3057 290.082 87.3115 289.291V280.203ZM97.498 293C97.4043 292.812 97.3281 292.479 97.2695 291.998C96.5137 292.783 95.6113 293.176 94.5625 293.176C93.625 293.176 92.8545 292.912 92.251 292.385C91.6533 291.852 91.3545 291.178 91.3545 290.363C91.3545 289.373 91.7295 288.605 92.4795 288.061C93.2354 287.51 94.2959 287.234 95.6611 287.234H97.2432V286.487C97.2432 285.919 97.0732 285.468 96.7334 285.134C96.3936 284.794 95.8926 284.624 95.2305 284.624C94.6504 284.624 94.1641 284.771 93.7715 285.063C93.3789 285.356 93.1826 285.711 93.1826 286.127H91.5479C91.5479 285.652 91.7148 285.195 92.0488 284.756C92.3887 284.311 92.8457 283.959 93.4199 283.701C94 283.443 94.6357 283.314 95.3271 283.314C96.4229 283.314 97.2812 283.59 97.9023 284.141C98.5234 284.686 98.8457 285.438 98.8691 286.399V290.776C98.8691 291.649 98.9805 292.344 99.2031 292.859V293H97.498ZM94.7998 291.761C95.3096 291.761 95.793 291.629 96.25 291.365C96.707 291.102 97.0381 290.759 97.2432 290.337V288.386H95.9688C93.9766 288.386 92.9805 288.969 92.9805 290.135C92.9805 290.645 93.1504 291.043 93.4902 291.33C93.8301 291.617 94.2666 291.761 94.7998 291.761ZM102.956 283.49L103.009 284.686C103.735 283.771 104.685 283.314 105.856 283.314C107.866 283.314 108.88 284.448 108.897 286.716V293H107.271V286.707C107.266 286.021 107.107 285.515 106.797 285.187C106.492 284.858 106.015 284.694 105.364 284.694C104.837 284.694 104.374 284.835 103.976 285.116C103.577 285.397 103.267 285.767 103.044 286.224V293H101.418V283.49H102.956ZM118.012 285.811H119.233C120.001 285.799 120.604 285.597 121.044 285.204C121.483 284.812 121.703 284.281 121.703 283.613C121.703 282.113 120.956 281.363 119.462 281.363C118.759 281.363 118.196 281.565 117.774 281.97C117.358 282.368 117.15 282.898 117.15 283.561H115.524C115.524 282.547 115.894 281.706 116.632 281.038C117.376 280.364 118.319 280.027 119.462 280.027C120.669 280.027 121.615 280.347 122.301 280.985C122.986 281.624 123.329 282.512 123.329 283.648C123.329 284.205 123.147 284.744 122.784 285.266C122.427 285.787 121.938 286.177 121.316 286.435C122.02 286.657 122.562 287.026 122.942 287.542C123.329 288.058 123.522 288.688 123.522 289.432C123.522 290.58 123.147 291.491 122.397 292.165C121.647 292.839 120.672 293.176 119.471 293.176C118.27 293.176 117.291 292.851 116.535 292.2C115.785 291.55 115.41 290.691 115.41 289.625H117.045C117.045 290.299 117.265 290.838 117.704 291.242C118.144 291.646 118.732 291.849 119.471 291.849C120.256 291.849 120.856 291.644 121.272 291.233C121.688 290.823 121.896 290.234 121.896 289.467C121.896 288.723 121.668 288.151 121.211 287.753C120.754 287.354 120.095 287.149 119.233 287.138H118.012V285.811ZM133.779 287.542C133.779 289.446 133.454 290.861 132.804 291.787C132.153 292.713 131.137 293.176 129.754 293.176C128.389 293.176 127.378 292.725 126.722 291.822C126.065 290.914 125.726 289.561 125.702 287.762V285.591C125.702 283.71 126.027 282.312 126.678 281.398C127.328 280.484 128.348 280.027 129.736 280.027C131.113 280.027 132.127 280.47 132.777 281.354C133.428 282.233 133.762 283.593 133.779 285.433V287.542ZM132.153 285.318C132.153 283.941 131.96 282.939 131.573 282.312C131.187 281.68 130.574 281.363 129.736 281.363C128.904 281.363 128.298 281.677 127.917 282.304C127.536 282.931 127.34 283.895 127.328 285.195V287.797C127.328 289.18 127.527 290.202 127.926 290.864C128.33 291.521 128.939 291.849 129.754 291.849C130.557 291.849 131.151 291.538 131.538 290.917C131.931 290.296 132.136 289.317 132.153 287.981V285.318Z" fill="white"/>
<path d="M258.636 280.081C258.343 279.996 258.155 279.638 258.218 279.269L259.937 269.143C260 268.774 260.289 268.538 260.583 268.617C260.877 268.696 261.064 269.059 261.001 269.429L259.281 279.555C259.227 279.876 258.999 280.185 258.636 280.081Z" fill="white"/>
<path d="M277.719 279.555L275.999 269.429C275.936 269.059 276.124 268.696 276.417 268.617C276.711 268.538 277 268.774 277.063 269.143L278.783 279.269C278.845 279.638 278.657 279.995 278.364 280.081C278.045 280.174 277.773 279.876 277.719 279.555Z" fill="white"/>
<path d="M285.12 260.831C283.563 253.574 281.507 249.072 281.483 249.038C281.421 248.949 280.014 246.975 277.519 246.133C277.288 242.448 273.723 240 268.5 240C263.277 240 259.712 242.448 259.481 246.133C256.986 246.975 255.579 248.949 255.517 249.038C255.493 249.072 253.437 253.575 251.88 260.831C250.446 267.515 249.092 278.099 250.792 290.563C250.793 290.571 251.245 294.416 251.245 294.416C251.284 294.751 251.513 295 251.783 295H255.494C255.765 295 255.995 294.749 256.032 294.412L256.455 290.64L256.913 289.444L257.04 290.145C257.097 290.456 257.317 290.677 257.571 290.677H279.429C279.683 290.677 279.903 290.456 279.96 290.145L280.087 289.444L280.545 290.64L280.968 294.412C281.005 294.749 281.235 295 281.506 295H285.217C285.487 295 285.716 294.751 285.755 294.416C285.755 294.416 286.207 290.571 286.208 290.563C287.908 278.099 286.554 267.515 285.12 260.831ZM277.427 247.524C279.006 248.116 280.069 249.22 280.478 249.704L279.264 256.428H269.044V253.718L270.164 250.814C271.347 250.928 274.892 251.093 276.583 249.2C277.005 248.728 277.286 248.167 277.427 247.524ZM257.723 257.796H267.956V285.327H257.307C256.935 282.485 255.426 269.287 257.723 257.796ZM257.529 286.695H267.956V287.318H257.642L257.529 286.695ZM268.5 251.993L267.674 249.85C267.652 249.776 267.621 249.705 267.577 249.641C267.322 249.272 267.064 248.879 266.814 248.48H270.186C269.936 248.879 269.677 249.272 269.423 249.641C269.379 249.705 269.348 249.776 269.326 249.85L268.5 251.993ZM266.003 247.113C265.464 246.142 265.083 245.299 265.083 244.933C265.083 244.165 266.488 243.629 268.5 243.629C270.512 243.629 271.917 244.165 271.917 244.933C271.917 245.3 271.536 246.142 270.996 247.113H266.003ZM268.5 241.368C273.177 241.368 276.444 243.485 276.444 246.517C276.444 247.194 276.253 247.738 275.86 248.178C274.791 249.375 272.463 249.559 270.934 249.499C271.803 248.14 273.004 246.057 273.004 244.933C273.004 243.21 271.405 242.261 268.5 242.261C265.595 242.261 263.996 243.21 263.996 244.933C263.996 246.057 265.197 248.14 266.066 249.499C264.536 249.559 262.209 249.375 261.14 248.178C260.747 247.738 260.556 247.194 260.556 246.517C260.556 243.485 263.823 241.368 268.5 241.368ZM259.573 247.524C259.714 248.167 259.995 248.728 260.417 249.2C262.108 251.093 265.653 250.928 266.837 250.814L267.956 253.718V256.428H257.736L256.522 249.703C256.928 249.218 257.985 248.117 259.573 247.524ZM255.021 293.633H252.253L252.187 293.066H255.085L255.021 293.633ZM255.238 291.698H252.027L251.961 291.132H255.302L255.238 291.698ZM255.583 289.764H251.789C250.242 277.814 251.542 267.676 252.92 261.236C253.887 256.715 255.024 253.346 255.728 251.483L256.742 257.1C254.077 269.955 256.151 285.001 256.306 286.078C256.308 286.107 256.524 287.306 256.524 287.306L255.583 289.764ZM258.004 289.309L257.891 288.686H267.956V289.309H258.004ZM278.996 289.309H269.044V288.686H279.109L278.996 289.309ZM279.358 287.318H269.044V286.695H279.471L279.358 287.318ZM279.693 285.327H269.044V257.796H279.277C281.574 269.287 280.065 282.485 279.693 285.327ZM284.747 293.633H281.979L281.915 293.066H284.813L284.747 293.633ZM284.973 291.698H281.762L281.698 291.132H285.04L284.973 291.698ZM285.211 289.764H281.417L280.476 287.306C280.476 287.306 280.692 286.106 280.694 286.078C280.849 285 282.923 269.955 280.258 257.1L281.273 251.482C281.973 253.335 283.103 256.683 284.07 261.187C285.454 267.636 286.76 277.792 285.211 289.764Z" fill="white"/>
<path d="M268.88 154.089C268.882 154.058 268.895 154.032 268.895 154V152C268.895 151.448 268.516 151 268.047 151C267.578 151 267.199 151.448 267.199 152V154C267.199 154.044 267.216 154.082 267.22 154.125C256.748 154.841 248.164 164.49 247.005 177.134C246.971 177.503 247.114 177.864 247.376 178.072C247.638 178.279 247.974 178.298 248.251 178.122C249.526 177.312 251.381 176.847 253.342 176.847C257.063 176.847 259.842 178.512 259.842 180.001C259.842 180.553 260.222 181.001 260.691 181.001C261.16 181.001 261.539 180.553 261.539 180.001C261.539 178.627 263.909 177.106 267.199 176.879V203.075H267.207C267.251 204.72 268.718 206 270.592 206C272.494 206 273.984 204.682 273.984 203C273.984 202.448 273.605 202 273.136 202C272.667 202 272.288 202.448 272.288 203C272.288 203.408 271.627 204 270.592 204C269.556 204 268.895 203.408 268.895 203V176.879C272.177 177.11 274.539 178.628 274.539 180C274.539 180.552 274.918 181 275.387 181C275.856 181 276.235 180.552 276.235 180C276.235 178.511 279.015 176.846 282.735 176.846C285.162 176.846 287.464 177.587 288.6 178.733C288.861 178.996 289.229 179.048 289.536 178.864C289.843 178.68 290.024 178.298 289.997 177.894C289.114 164.703 279.877 154.341 268.88 154.089ZM253.342 174.846C251.729 174.846 250.202 175.119 248.902 175.629C250.462 165.408 257.344 157.657 265.837 156.308C261.99 160.838 259.649 168.319 259.573 176.589C258.093 175.511 255.893 174.846 253.342 174.846ZM268.039 174.846C265.153 174.846 262.706 175.691 261.256 177.03C261.256 177.02 261.261 177.011 261.261 177C261.261 168.501 263.909 160.634 268.047 156.66C272.185 160.635 274.833 168.502 274.833 177C274.833 177.017 274.84 177.031 274.841 177.048C273.393 175.7 270.938 174.846 268.039 174.846ZM282.735 174.846C280.193 174.846 278 175.506 276.52 176.577C276.442 168.223 274.049 160.681 270.13 156.169C279.135 157.084 286.611 165.352 288.1 176.05C286.647 175.28 284.762 174.846 282.735 174.846Z" fill="white"/>
<path d="M78.3203 173V161.625H82.0391C83.2734 161.625 84.2005 161.88 84.8203 162.391C85.4453 162.901 85.7578 163.656 85.7578 164.656C85.7578 165.188 85.6068 165.659 85.3047 166.07C85.0026 166.477 84.5911 166.792 84.0703 167.016C84.6849 167.188 85.1693 167.516 85.5234 168C85.8828 168.479 86.0625 169.052 86.0625 169.719C86.0625 170.74 85.7318 171.542 85.0703 172.125C84.4089 172.708 83.474 173 82.2656 173H78.3203ZM79.8203 167.68V171.773H82.2969C82.9948 171.773 83.5443 171.594 83.9453 171.234C84.3516 170.87 84.5547 170.37 84.5547 169.734C84.5547 168.365 83.8099 167.68 82.3203 167.68H79.8203ZM79.8203 166.477H82.0859C82.7422 166.477 83.2656 166.312 83.6562 165.984C84.0521 165.656 84.25 165.211 84.25 164.648C84.25 164.023 84.0677 163.57 83.7031 163.289C83.3385 163.003 82.7839 162.859 82.0391 162.859H79.8203V166.477ZM91.5703 173.156C90.4245 173.156 89.4922 172.781 88.7734 172.031C88.0547 171.276 87.6953 170.268 87.6953 169.008V168.742C87.6953 167.904 87.8542 167.156 88.1719 166.5C88.4948 165.839 88.9427 165.323 89.5156 164.953C90.0938 164.578 90.7188 164.391 91.3906 164.391C92.4896 164.391 93.3438 164.753 93.9531 165.477C94.5625 166.201 94.8672 167.237 94.8672 168.586V169.188H89.1406C89.1615 170.021 89.4036 170.695 89.8672 171.211C90.3359 171.721 90.9297 171.977 91.6484 171.977C92.1589 171.977 92.5911 171.872 92.9453 171.664C93.2995 171.456 93.6094 171.18 93.875 170.836L94.7578 171.523C94.0495 172.612 92.987 173.156 91.5703 173.156ZM91.3906 165.578C90.8073 165.578 90.3177 165.792 89.9219 166.219C89.526 166.641 89.2812 167.234 89.1875 168H93.4219V167.891C93.3802 167.156 93.1823 166.589 92.8281 166.188C92.474 165.781 91.9948 165.578 91.3906 165.578ZM101.469 170.758C101.469 170.367 101.32 170.065 101.023 169.852C100.732 169.633 100.219 169.445 99.4844 169.289C98.7552 169.133 98.1745 168.945 97.7422 168.727C97.3151 168.508 96.9974 168.247 96.7891 167.945C96.5859 167.643 96.4844 167.284 96.4844 166.867C96.4844 166.174 96.776 165.589 97.3594 165.109C97.9479 164.63 98.6979 164.391 99.6094 164.391C100.568 164.391 101.344 164.638 101.938 165.133C102.536 165.628 102.836 166.26 102.836 167.031H101.383C101.383 166.635 101.214 166.294 100.875 166.008C100.542 165.721 100.12 165.578 99.6094 165.578C99.0833 165.578 98.6719 165.693 98.375 165.922C98.0781 166.151 97.9297 166.451 97.9297 166.82C97.9297 167.169 98.0677 167.432 98.3438 167.609C98.6198 167.786 99.1172 167.956 99.8359 168.117C100.56 168.279 101.146 168.471 101.594 168.695C102.042 168.919 102.372 169.19 102.586 169.508C102.805 169.82 102.914 170.203 102.914 170.656C102.914 171.411 102.612 172.018 102.008 172.477C101.404 172.93 100.62 173.156 99.6562 173.156C98.9792 173.156 98.3802 173.036 97.8594 172.797C97.3385 172.557 96.9297 172.224 96.6328 171.797C96.3411 171.365 96.1953 170.898 96.1953 170.398H97.6406C97.6667 170.883 97.8594 171.268 98.2188 171.555C98.5833 171.836 99.0625 171.977 99.6562 171.977C100.203 171.977 100.641 171.867 100.969 171.648C101.302 171.424 101.469 171.128 101.469 170.758ZM106.758 162.5V164.547H108.336V165.664H106.758V170.906C106.758 171.245 106.828 171.5 106.969 171.672C107.109 171.839 107.349 171.922 107.688 171.922C107.854 171.922 108.083 171.891 108.375 171.828V173C107.995 173.104 107.625 173.156 107.266 173.156C106.62 173.156 106.133 172.961 105.805 172.57C105.477 172.18 105.312 171.625 105.312 170.906V165.664H103.773V164.547H105.312V162.5H106.758ZM117.578 167.93C116.292 167.56 115.354 167.107 114.766 166.57C114.182 166.029 113.891 165.362 113.891 164.57C113.891 163.674 114.247 162.935 114.961 162.352C115.68 161.763 116.612 161.469 117.758 161.469C118.539 161.469 119.234 161.62 119.844 161.922C120.458 162.224 120.932 162.641 121.266 163.172C121.604 163.703 121.773 164.284 121.773 164.914H120.266C120.266 164.227 120.047 163.688 119.609 163.297C119.172 162.901 118.555 162.703 117.758 162.703C117.018 162.703 116.44 162.867 116.023 163.195C115.612 163.518 115.406 163.969 115.406 164.547C115.406 165.01 115.602 165.404 115.992 165.727C116.388 166.044 117.057 166.336 118 166.602C118.948 166.867 119.688 167.161 120.219 167.484C120.755 167.802 121.151 168.174 121.406 168.602C121.667 169.029 121.797 169.531 121.797 170.109C121.797 171.031 121.438 171.771 120.719 172.328C120 172.88 119.039 173.156 117.836 173.156C117.055 173.156 116.326 173.008 115.648 172.711C114.971 172.409 114.448 171.997 114.078 171.477C113.714 170.956 113.531 170.365 113.531 169.703H115.039C115.039 170.391 115.292 170.935 115.797 171.336C116.307 171.732 116.987 171.93 117.836 171.93C118.628 171.93 119.234 171.768 119.656 171.445C120.078 171.122 120.289 170.682 120.289 170.125C120.289 169.568 120.094 169.138 119.703 168.836C119.312 168.529 118.604 168.227 117.578 167.93ZM127.008 173.156C125.862 173.156 124.93 172.781 124.211 172.031C123.492 171.276 123.133 170.268 123.133 169.008V168.742C123.133 167.904 123.292 167.156 123.609 166.5C123.932 165.839 124.38 165.323 124.953 164.953C125.531 164.578 126.156 164.391 126.828 164.391C127.927 164.391 128.781 164.753 129.391 165.477C130 166.201 130.305 167.237 130.305 168.586V169.188H124.578C124.599 170.021 124.841 170.695 125.305 171.211C125.773 171.721 126.367 171.977 127.086 171.977C127.596 171.977 128.029 171.872 128.383 171.664C128.737 171.456 129.047 171.18 129.312 170.836L130.195 171.523C129.487 172.612 128.424 173.156 127.008 173.156ZM126.828 165.578C126.245 165.578 125.755 165.792 125.359 166.219C124.964 166.641 124.719 167.234 124.625 168H128.859V167.891C128.818 167.156 128.62 166.589 128.266 166.188C127.911 165.781 127.432 165.578 126.828 165.578ZM133.555 173H132.109V161H133.555V173ZM137.445 173H136V161H137.445V173ZM143.961 173V161.625H147.172C148.161 161.625 149.036 161.844 149.797 162.281C150.557 162.719 151.143 163.341 151.555 164.148C151.971 164.956 152.182 165.883 152.188 166.93V167.656C152.188 168.729 151.979 169.669 151.562 170.477C151.151 171.284 150.56 171.904 149.789 172.336C149.023 172.768 148.13 172.99 147.109 173H143.961ZM145.461 162.859V171.773H147.039C148.195 171.773 149.094 171.414 149.734 170.695C150.38 169.977 150.703 168.953 150.703 167.625V166.961C150.703 165.669 150.398 164.667 149.789 163.953C149.185 163.234 148.326 162.87 147.211 162.859H145.461ZM159.453 173C159.37 172.833 159.302 172.536 159.25 172.109C158.578 172.807 157.776 173.156 156.844 173.156C156.01 173.156 155.326 172.922 154.789 172.453C154.258 171.979 153.992 171.38 153.992 170.656C153.992 169.776 154.326 169.094 154.992 168.609C155.664 168.12 156.607 167.875 157.82 167.875H159.227V167.211C159.227 166.706 159.076 166.305 158.773 166.008C158.471 165.706 158.026 165.555 157.438 165.555C156.922 165.555 156.49 165.685 156.141 165.945C155.792 166.206 155.617 166.521 155.617 166.891H154.164C154.164 166.469 154.312 166.062 154.609 165.672C154.911 165.276 155.318 164.964 155.828 164.734C156.344 164.505 156.909 164.391 157.523 164.391C158.497 164.391 159.26 164.635 159.812 165.125C160.365 165.609 160.651 166.279 160.672 167.133V171.023C160.672 171.799 160.771 172.417 160.969 172.875V173H159.453ZM157.055 171.898C157.508 171.898 157.938 171.781 158.344 171.547C158.75 171.312 159.044 171.008 159.227 170.633V168.898H158.094C156.323 168.898 155.438 169.417 155.438 170.453C155.438 170.906 155.589 171.26 155.891 171.516C156.193 171.771 156.581 171.898 157.055 171.898ZM165.578 170.883L167.547 164.547H169.094L165.695 174.305C165.169 175.711 164.333 176.414 163.188 176.414L162.914 176.391L162.375 176.289V175.117L162.766 175.148C163.255 175.148 163.635 175.049 163.906 174.852C164.182 174.654 164.409 174.292 164.586 173.766L164.906 172.906L161.891 164.547H163.469L165.578 170.883Z" fill="#98BEEF" fill-opacity="0.93"/>
<path d="M77.3203 262V250.625H81.0391C82.2734 250.625 83.2005 250.88 83.8203 251.391C84.4453 251.901 84.7578 252.656 84.7578 253.656C84.7578 254.188 84.6068 254.659 84.3047 255.07C84.0026 255.477 83.5911 255.792 83.0703 256.016C83.6849 256.188 84.1693 256.516 84.5234 257C84.8828 257.479 85.0625 258.052 85.0625 258.719C85.0625 259.74 84.7318 260.542 84.0703 261.125C83.4089 261.708 82.474 262 81.2656 262H77.3203ZM78.8203 256.68V260.773H81.2969C81.9948 260.773 82.5443 260.594 82.9453 260.234C83.3516 259.87 83.5547 259.37 83.5547 258.734C83.5547 257.365 82.8099 256.68 81.3203 256.68H78.8203ZM78.8203 255.477H81.0859C81.7422 255.477 82.2656 255.312 82.6562 254.984C83.0521 254.656 83.25 254.211 83.25 253.648C83.25 253.023 83.0677 252.57 82.7031 252.289C82.3385 252.003 81.7839 251.859 81.0391 251.859H78.8203V255.477ZM90.5703 262.156C89.4245 262.156 88.4922 261.781 87.7734 261.031C87.0547 260.276 86.6953 259.268 86.6953 258.008V257.742C86.6953 256.904 86.8542 256.156 87.1719 255.5C87.4948 254.839 87.9427 254.323 88.5156 253.953C89.0938 253.578 89.7188 253.391 90.3906 253.391C91.4896 253.391 92.3438 253.753 92.9531 254.477C93.5625 255.201 93.8672 256.237 93.8672 257.586V258.188H88.1406C88.1615 259.021 88.4036 259.695 88.8672 260.211C89.3359 260.721 89.9297 260.977 90.6484 260.977C91.1589 260.977 91.5911 260.872 91.9453 260.664C92.2995 260.456 92.6094 260.18 92.875 259.836L93.7578 260.523C93.0495 261.612 91.987 262.156 90.5703 262.156ZM90.3906 254.578C89.8073 254.578 89.3177 254.792 88.9219 255.219C88.526 255.641 88.2812 256.234 88.1875 257H92.4219V256.891C92.3802 256.156 92.1823 255.589 91.8281 255.188C91.474 254.781 90.9948 254.578 90.3906 254.578ZM100.469 259.758C100.469 259.367 100.32 259.065 100.023 258.852C99.7318 258.633 99.2188 258.445 98.4844 258.289C97.7552 258.133 97.1745 257.945 96.7422 257.727C96.3151 257.508 95.9974 257.247 95.7891 256.945C95.5859 256.643 95.4844 256.284 95.4844 255.867C95.4844 255.174 95.776 254.589 96.3594 254.109C96.9479 253.63 97.6979 253.391 98.6094 253.391C99.5677 253.391 100.344 253.638 100.938 254.133C101.536 254.628 101.836 255.26 101.836 256.031H100.383C100.383 255.635 100.214 255.294 99.875 255.008C99.5417 254.721 99.1198 254.578 98.6094 254.578C98.0833 254.578 97.6719 254.693 97.375 254.922C97.0781 255.151 96.9297 255.451 96.9297 255.82C96.9297 256.169 97.0677 256.432 97.3438 256.609C97.6198 256.786 98.1172 256.956 98.8359 257.117C99.5599 257.279 100.146 257.471 100.594 257.695C101.042 257.919 101.372 258.19 101.586 258.508C101.805 258.82 101.914 259.203 101.914 259.656C101.914 260.411 101.612 261.018 101.008 261.477C100.404 261.93 99.6198 262.156 98.6562 262.156C97.9792 262.156 97.3802 262.036 96.8594 261.797C96.3385 261.557 95.9297 261.224 95.6328 260.797C95.3411 260.365 95.1953 259.898 95.1953 259.398H96.6406C96.6667 259.883 96.8594 260.268 97.2188 260.555C97.5833 260.836 98.0625 260.977 98.6562 260.977C99.2031 260.977 99.6406 260.867 99.9688 260.648C100.302 260.424 100.469 260.128 100.469 259.758ZM105.758 251.5V253.547H107.336V254.664H105.758V259.906C105.758 260.245 105.828 260.5 105.969 260.672C106.109 260.839 106.349 260.922 106.688 260.922C106.854 260.922 107.083 260.891 107.375 260.828V262C106.995 262.104 106.625 262.156 106.266 262.156C105.62 262.156 105.133 261.961 104.805 261.57C104.477 261.18 104.312 260.625 104.312 259.906V254.664H102.773V253.547H104.312V251.5H105.758ZM116.578 256.93C115.292 256.56 114.354 256.107 113.766 255.57C113.182 255.029 112.891 254.362 112.891 253.57C112.891 252.674 113.247 251.935 113.961 251.352C114.68 250.763 115.612 250.469 116.758 250.469C117.539 250.469 118.234 250.62 118.844 250.922C119.458 251.224 119.932 251.641 120.266 252.172C120.604 252.703 120.773 253.284 120.773 253.914H119.266C119.266 253.227 119.047 252.688 118.609 252.297C118.172 251.901 117.555 251.703 116.758 251.703C116.018 251.703 115.44 251.867 115.023 252.195C114.612 252.518 114.406 252.969 114.406 253.547C114.406 254.01 114.602 254.404 114.992 254.727C115.388 255.044 116.057 255.336 117 255.602C117.948 255.867 118.688 256.161 119.219 256.484C119.755 256.802 120.151 257.174 120.406 257.602C120.667 258.029 120.797 258.531 120.797 259.109C120.797 260.031 120.438 260.771 119.719 261.328C119 261.88 118.039 262.156 116.836 262.156C116.055 262.156 115.326 262.008 114.648 261.711C113.971 261.409 113.448 260.997 113.078 260.477C112.714 259.956 112.531 259.365 112.531 258.703H114.039C114.039 259.391 114.292 259.935 114.797 260.336C115.307 260.732 115.987 260.93 116.836 260.93C117.628 260.93 118.234 260.768 118.656 260.445C119.078 260.122 119.289 259.682 119.289 259.125C119.289 258.568 119.094 258.138 118.703 257.836C118.312 257.529 117.604 257.227 116.578 256.93ZM126.008 262.156C124.862 262.156 123.93 261.781 123.211 261.031C122.492 260.276 122.133 259.268 122.133 258.008V257.742C122.133 256.904 122.292 256.156 122.609 255.5C122.932 254.839 123.38 254.323 123.953 253.953C124.531 253.578 125.156 253.391 125.828 253.391C126.927 253.391 127.781 253.753 128.391 254.477C129 255.201 129.305 256.237 129.305 257.586V258.188H123.578C123.599 259.021 123.841 259.695 124.305 260.211C124.773 260.721 125.367 260.977 126.086 260.977C126.596 260.977 127.029 260.872 127.383 260.664C127.737 260.456 128.047 260.18 128.312 259.836L129.195 260.523C128.487 261.612 127.424 262.156 126.008 262.156ZM125.828 254.578C125.245 254.578 124.755 254.792 124.359 255.219C123.964 255.641 123.719 256.234 123.625 257H127.859V256.891C127.818 256.156 127.62 255.589 127.266 255.188C126.911 254.781 126.432 254.578 125.828 254.578ZM132.555 262H131.109V250H132.555V262ZM136.445 262H135V250H136.445V262ZM142.961 262V250.625H146.172C147.161 250.625 148.036 250.844 148.797 251.281C149.557 251.719 150.143 252.341 150.555 253.148C150.971 253.956 151.182 254.883 151.188 255.93V256.656C151.188 257.729 150.979 258.669 150.562 259.477C150.151 260.284 149.56 260.904 148.789 261.336C148.023 261.768 147.13 261.99 146.109 262H142.961ZM144.461 251.859V260.773H146.039C147.195 260.773 148.094 260.414 148.734 259.695C149.38 258.977 149.703 257.953 149.703 256.625V255.961C149.703 254.669 149.398 253.667 148.789 252.953C148.185 252.234 147.326 251.87 146.211 251.859H144.461ZM158.453 262C158.37 261.833 158.302 261.536 158.25 261.109C157.578 261.807 156.776 262.156 155.844 262.156C155.01 262.156 154.326 261.922 153.789 261.453C153.258 260.979 152.992 260.38 152.992 259.656C152.992 258.776 153.326 258.094 153.992 257.609C154.664 257.12 155.607 256.875 156.82 256.875H158.227V256.211C158.227 255.706 158.076 255.305 157.773 255.008C157.471 254.706 157.026 254.555 156.438 254.555C155.922 254.555 155.49 254.685 155.141 254.945C154.792 255.206 154.617 255.521 154.617 255.891H153.164C153.164 255.469 153.312 255.062 153.609 254.672C153.911 254.276 154.318 253.964 154.828 253.734C155.344 253.505 155.909 253.391 156.523 253.391C157.497 253.391 158.26 253.635 158.812 254.125C159.365 254.609 159.651 255.279 159.672 256.133V260.023C159.672 260.799 159.771 261.417 159.969 261.875V262H158.453ZM156.055 260.898C156.508 260.898 156.938 260.781 157.344 260.547C157.75 260.312 158.044 260.008 158.227 259.633V257.898H157.094C155.323 257.898 154.438 258.417 154.438 259.453C154.438 259.906 154.589 260.26 154.891 260.516C155.193 260.771 155.581 260.898 156.055 260.898ZM164.578 259.883L166.547 253.547H168.094L164.695 263.305C164.169 264.711 163.333 265.414 162.188 265.414L161.914 265.391L161.375 265.289V264.117L161.766 264.148C162.255 264.148 162.635 264.049 162.906 263.852C163.182 263.654 163.409 263.292 163.586 262.766L163.906 261.906L160.891 253.547H162.469L164.578 259.883Z" fill="#98BEEF"/>
<line x1="42" y1="228.75" x2="337" y2="228.75" stroke="#3E526C" stroke-width="0.5"/>
<path d="M49.9078 95.3178C48.3005 96.5663 46.2777 97.1554 44.2514 96.9649C42.225 96.7744 40.3475 95.8188 39.001 94.2926C37.6545 92.7664 36.9403 90.7844 37.0039 88.7501C37.0675 86.7159 37.904 84.7823 39.3431 83.3431C40.7823 81.904 42.7159 81.0675 44.7501 81.0039C46.7844 80.9403 48.7664 81.6545 50.2926 83.001C51.8188 84.3475 52.7744 86.225 52.9649 88.2514C53.1554 90.2777 52.5663 92.3005 51.3178 93.9078L56.6678 99.2378L55.2478 100.658L49.9178 95.3178H49.9078ZM45.0078 94.9978C45.7957 94.9978 46.5759 94.8426 47.3039 94.541C48.0318 94.2395 48.6932 93.7975 49.2504 93.2404C49.8075 92.6832 50.2495 92.0218 50.551 91.2939C50.8526 90.5659 51.0078 89.7857 51.0078 88.9978C51.0078 88.2098 50.8526 87.4296 50.551 86.7017C50.2495 85.9737 49.8075 85.3123 49.2504 84.7551C48.6932 84.198 48.0318 83.756 47.3039 83.4545C46.5759 83.1529 45.7957 82.9978 45.0078 82.9978C43.4165 82.9978 41.8903 83.6299 40.7651 84.7551C39.6399 85.8803 39.0078 87.4065 39.0078 88.9978C39.0078 90.5891 39.6399 92.1152 40.7651 93.2404C41.8903 94.3656 43.4165 94.9978 45.0078 94.9978V94.9978Z" fill="#3E526C"/>
<path d="M140.155 852V842.047H142.965C143.831 842.047 144.596 842.238 145.262 842.621C145.927 843.004 146.44 843.549 146.8 844.255C147.164 844.961 147.349 845.772 147.354 846.688V847.324C147.354 848.263 147.171 849.086 146.807 849.792C146.447 850.498 145.929 851.041 145.255 851.419C144.585 851.797 143.803 851.991 142.91 852H140.155ZM141.468 843.127V850.927H142.849C143.86 850.927 144.646 850.612 145.207 849.983C145.772 849.354 146.055 848.459 146.055 847.297V846.716C146.055 845.586 145.788 844.708 145.255 844.084C144.726 843.455 143.974 843.136 142.999 843.127H141.468ZM152.214 852.137C151.211 852.137 150.396 851.809 149.767 851.152C149.138 850.492 148.823 849.61 148.823 848.507V848.274C148.823 847.541 148.962 846.887 149.24 846.312C149.523 845.734 149.915 845.283 150.416 844.959C150.922 844.631 151.469 844.467 152.057 844.467C153.018 844.467 153.766 844.784 154.299 845.417C154.832 846.05 155.099 846.957 155.099 848.138V848.664H150.088C150.106 849.393 150.318 849.983 150.724 850.435C151.134 850.881 151.653 851.104 152.282 851.104C152.729 851.104 153.107 851.013 153.417 850.831C153.727 850.649 153.998 850.407 154.23 850.106L155.003 850.708C154.383 851.66 153.453 852.137 152.214 852.137ZM152.057 845.506C151.546 845.506 151.118 845.693 150.771 846.066C150.425 846.436 150.211 846.955 150.129 847.625H153.834V847.529C153.798 846.887 153.624 846.39 153.314 846.039C153.005 845.684 152.585 845.506 152.057 845.506ZM160.875 850.038C160.875 849.696 160.745 849.432 160.485 849.245C160.23 849.054 159.781 848.89 159.139 848.753C158.501 848.616 157.993 848.452 157.614 848.261C157.241 848.069 156.963 847.841 156.78 847.577C156.603 847.313 156.514 846.998 156.514 846.634C156.514 846.028 156.769 845.515 157.279 845.096C157.794 844.676 158.451 844.467 159.248 844.467C160.087 844.467 160.766 844.683 161.285 845.116C161.809 845.549 162.071 846.103 162.071 846.777H160.8C160.8 846.431 160.652 846.132 160.355 845.882C160.064 845.631 159.695 845.506 159.248 845.506C158.788 845.506 158.428 845.606 158.168 845.807C157.908 846.007 157.778 846.269 157.778 846.593C157.778 846.898 157.899 847.128 158.141 847.283C158.382 847.438 158.817 847.586 159.446 847.728C160.08 847.869 160.592 848.037 160.984 848.233C161.376 848.429 161.666 848.666 161.853 848.944C162.044 849.218 162.14 849.553 162.14 849.949C162.14 850.61 161.875 851.141 161.347 851.542C160.818 851.938 160.132 852.137 159.289 852.137C158.697 852.137 158.173 852.032 157.717 851.822C157.261 851.613 156.903 851.321 156.644 850.947C156.388 850.569 156.261 850.161 156.261 849.724H157.525C157.548 850.147 157.717 850.485 158.031 850.735C158.35 850.981 158.77 851.104 159.289 851.104C159.768 851.104 160.15 851.009 160.438 850.817C160.729 850.621 160.875 850.362 160.875 850.038ZM165.161 852H163.896V844.604H165.161V852ZM163.794 842.642C163.794 842.437 163.855 842.263 163.979 842.122C164.106 841.981 164.293 841.91 164.539 841.91C164.785 841.91 164.972 841.981 165.1 842.122C165.227 842.263 165.291 842.437 165.291 842.642C165.291 842.847 165.227 843.018 165.1 843.154C164.972 843.291 164.785 843.359 164.539 843.359C164.293 843.359 164.106 843.291 163.979 843.154C163.855 843.018 163.794 842.847 163.794 842.642ZM166.891 848.24C166.891 847.087 167.157 846.171 167.69 845.492C168.224 844.809 168.93 844.467 169.81 844.467C170.712 844.467 171.416 844.786 171.922 845.424L171.983 844.604H173.139V851.822C173.139 852.779 172.854 853.534 172.284 854.085C171.719 854.636 170.958 854.912 170.001 854.912C169.468 854.912 168.946 854.798 168.436 854.57C167.925 854.342 167.535 854.03 167.267 853.634L167.923 852.875C168.465 853.545 169.128 853.88 169.912 853.88C170.527 853.88 171.006 853.707 171.348 853.36C171.694 853.014 171.867 852.526 171.867 851.897V851.262C171.361 851.845 170.671 852.137 169.796 852.137C168.93 852.137 168.228 851.788 167.69 851.091C167.157 850.394 166.891 849.443 166.891 848.24ZM168.162 848.384C168.162 849.218 168.333 849.874 168.675 850.353C169.017 850.826 169.495 851.063 170.11 851.063C170.908 851.063 171.493 850.701 171.867 849.977V846.6C171.48 845.893 170.899 845.54 170.124 845.54C169.509 845.54 169.028 845.779 168.682 846.258C168.335 846.736 168.162 847.445 168.162 848.384ZM176.249 844.604L176.29 845.533C176.855 844.822 177.593 844.467 178.505 844.467C180.068 844.467 180.856 845.349 180.87 847.112V852H179.605V847.105C179.601 846.572 179.478 846.178 179.236 845.923C178.999 845.668 178.628 845.54 178.122 845.54C177.712 845.54 177.352 845.649 177.042 845.868C176.732 846.087 176.491 846.374 176.317 846.729V852H175.053V844.604H176.249ZM185.847 852.137C184.844 852.137 184.028 851.809 183.399 851.152C182.771 850.492 182.456 849.61 182.456 848.507V848.274C182.456 847.541 182.595 846.887 182.873 846.312C183.156 845.734 183.548 845.283 184.049 844.959C184.555 844.631 185.102 844.467 185.689 844.467C186.651 844.467 187.398 844.784 187.932 845.417C188.465 846.05 188.731 846.957 188.731 848.138V848.664H183.721C183.739 849.393 183.951 849.983 184.356 850.435C184.767 850.881 185.286 851.104 185.915 851.104C186.362 851.104 186.74 851.013 187.05 850.831C187.36 850.649 187.631 850.407 187.863 850.106L188.636 850.708C188.016 851.66 187.086 852.137 185.847 852.137ZM185.689 845.506C185.179 845.506 184.751 845.693 184.404 846.066C184.058 846.436 183.844 846.955 183.762 847.625H187.467V847.529C187.43 846.887 187.257 846.39 186.947 846.039C186.637 845.684 186.218 845.506 185.689 845.506ZM189.894 848.24C189.894 847.105 190.162 846.194 190.7 845.506C191.238 844.813 191.942 844.467 192.812 844.467C193.678 844.467 194.364 844.763 194.87 845.355V841.5H196.135V852H194.973L194.911 851.207C194.405 851.827 193.701 852.137 192.799 852.137C191.942 852.137 191.243 851.786 190.7 851.084C190.162 850.382 189.894 849.466 189.894 848.336V848.24ZM191.158 848.384C191.158 849.222 191.331 849.879 191.678 850.353C192.024 850.826 192.503 851.063 193.113 851.063C193.915 851.063 194.501 850.703 194.87 849.983V846.586C194.492 845.889 193.911 845.54 193.127 845.54C192.507 845.54 192.024 845.779 191.678 846.258C191.331 846.736 191.158 847.445 191.158 848.384ZM207.838 848.384C207.838 849.514 207.578 850.423 207.059 851.111C206.539 851.795 205.842 852.137 204.967 852.137C204.033 852.137 203.31 851.806 202.8 851.146L202.738 852H201.576V841.5H202.841V845.417C203.351 844.784 204.055 844.467 204.953 844.467C205.851 844.467 206.555 844.806 207.065 845.485C207.58 846.164 207.838 847.094 207.838 848.274V848.384ZM206.573 848.24C206.573 847.379 206.407 846.714 206.074 846.244C205.742 845.775 205.263 845.54 204.639 845.54C203.805 845.54 203.205 845.927 202.841 846.702V849.901C203.228 850.676 203.832 851.063 204.652 851.063C205.258 851.063 205.73 850.829 206.067 850.359C206.405 849.89 206.573 849.184 206.573 848.24ZM211.775 850.147L213.498 844.604H214.852L211.878 853.142C211.418 854.372 210.686 854.987 209.684 854.987L209.444 854.967L208.973 854.878V853.853L209.314 853.88C209.743 853.88 210.076 853.793 210.312 853.62C210.554 853.447 210.752 853.13 210.907 852.67L211.188 851.918L208.549 844.604H209.93L211.775 850.147ZM222.187 847.372L220.97 848.637V852H219.657V842.047H220.97V846.969L225.393 842.047H226.979L223.062 846.442L227.286 852H225.714L222.187 847.372ZM232.803 852C232.73 851.854 232.671 851.594 232.625 851.221C232.037 851.831 231.335 852.137 230.52 852.137C229.79 852.137 229.191 851.932 228.722 851.521C228.257 851.107 228.024 850.583 228.024 849.949C228.024 849.179 228.316 848.582 228.899 848.158C229.487 847.73 230.312 847.516 231.374 847.516H232.604V846.935C232.604 846.493 232.472 846.142 232.208 845.882C231.944 845.618 231.554 845.485 231.039 845.485C230.588 845.485 230.21 845.599 229.904 845.827C229.599 846.055 229.446 846.331 229.446 846.654H228.175C228.175 846.285 228.305 845.93 228.564 845.588C228.829 845.242 229.184 844.968 229.631 844.768C230.082 844.567 230.576 844.467 231.114 844.467C231.966 844.467 232.634 844.681 233.117 845.109C233.6 845.533 233.851 846.119 233.869 846.866V850.271C233.869 850.95 233.956 851.49 234.129 851.891V852H232.803ZM230.704 851.036C231.101 851.036 231.477 850.934 231.832 850.729C232.188 850.523 232.445 850.257 232.604 849.929V848.411H231.613C230.064 848.411 229.289 848.865 229.289 849.771C229.289 850.168 229.421 850.478 229.686 850.701C229.95 850.924 230.289 851.036 230.704 851.036ZM237.226 852H235.961V844.604H237.226V852ZM235.858 842.642C235.858 842.437 235.92 842.263 236.043 842.122C236.171 841.981 236.357 841.91 236.604 841.91C236.85 841.91 237.036 841.981 237.164 842.122C237.292 842.263 237.355 842.437 237.355 842.642C237.355 842.847 237.292 843.018 237.164 843.154C237.036 843.291 236.85 843.359 236.604 843.359C236.357 843.359 236.171 843.291 236.043 843.154C235.92 843.018 235.858 842.847 235.858 842.642Z" fill="#98BEEF"/>
<path d="M99.1172 43.7812L101.742 30.9375H104.684L100.746 48H97.9102L94.6641 35.543L91.3477 48H88.5L84.5625 30.9375H87.5039L90.1523 43.7578L93.4102 30.9375H95.8945L99.1172 43.7812ZM111.785 48.2344C109.98 48.2344 108.516 47.668 107.391 46.5352C106.273 45.3945 105.715 43.8789 105.715 41.9883V41.6367C105.715 40.3711 105.957 39.2422 106.441 38.25C106.934 37.25 107.621 36.4727 108.504 35.918C109.387 35.3633 110.371 35.0859 111.457 35.0859C113.184 35.0859 114.516 35.6367 115.453 36.7383C116.398 37.8398 116.871 39.3984 116.871 41.4141V42.5625H108.586C108.672 43.6094 109.02 44.4375 109.629 45.0469C110.246 45.6562 111.02 45.9609 111.949 45.9609C113.254 45.9609 114.316 45.4336 115.137 44.3789L116.672 45.8438C116.164 46.6016 115.484 47.1914 114.633 47.6133C113.789 48.0273 112.84 48.2344 111.785 48.2344ZM111.445 37.3711C110.664 37.3711 110.031 37.6445 109.547 38.1914C109.07 38.7383 108.766 39.5 108.633 40.4766H114.059V40.2656C113.996 39.3125 113.742 38.5938 113.297 38.1094C112.852 37.6172 112.234 37.3711 111.445 37.3711ZM126.668 48C126.543 47.7578 126.434 47.3633 126.34 46.8164C125.434 47.7617 124.324 48.2344 123.012 48.2344C121.738 48.2344 120.699 47.8711 119.895 47.1445C119.09 46.418 118.688 45.5195 118.688 44.4492C118.688 43.0977 119.188 42.0625 120.188 41.3438C121.195 40.6172 122.633 40.2539 124.5 40.2539H126.246V39.4219C126.246 38.7656 126.062 38.2422 125.695 37.8516C125.328 37.4531 124.77 37.2539 124.02 37.2539C123.371 37.2539 122.84 37.418 122.426 37.7461C122.012 38.0664 121.805 38.4766 121.805 38.9766H118.957C118.957 38.2812 119.188 37.6328 119.648 37.0312C120.109 36.4219 120.734 35.9453 121.523 35.6016C122.32 35.2578 123.207 35.0859 124.184 35.0859C125.668 35.0859 126.852 35.4609 127.734 36.2109C128.617 36.9531 129.07 38 129.094 39.3516V45.0703C129.094 46.2109 129.254 47.1211 129.574 47.8008V48H126.668ZM123.539 45.9492C124.102 45.9492 124.629 45.8125 125.121 45.5391C125.621 45.2656 125.996 44.8984 126.246 44.4375V42.0469H124.711C123.656 42.0469 122.863 42.2305 122.332 42.5977C121.801 42.9648 121.535 43.4844 121.535 44.1562C121.535 44.7031 121.715 45.1406 122.074 45.4688C122.441 45.7891 122.93 45.9492 123.539 45.9492ZM135.645 32.2383V35.3203H137.883V37.4297H135.645V44.5078C135.645 44.9922 135.738 45.3438 135.926 45.5625C136.121 45.7734 136.465 45.8789 136.957 45.8789C137.285 45.8789 137.617 45.8398 137.953 45.7617V47.9648C137.305 48.1445 136.68 48.2344 136.078 48.2344C133.891 48.2344 132.797 47.0273 132.797 44.6133V37.4297H130.711V35.3203H132.797V32.2383H135.645ZM142.875 36.7031C143.805 35.625 144.98 35.0859 146.402 35.0859C149.105 35.0859 150.477 36.6289 150.516 39.7148V48H147.668V39.8203C147.668 38.9453 147.477 38.3281 147.094 37.9688C146.719 37.6016 146.164 37.418 145.43 37.418C144.289 37.418 143.438 37.9258 142.875 38.9414V48H140.027V30H142.875V36.7031ZM158.988 48.2344C157.184 48.2344 155.719 47.668 154.594 46.5352C153.477 45.3945 152.918 43.8789 152.918 41.9883V41.6367C152.918 40.3711 153.16 39.2422 153.645 38.25C154.137 37.25 154.824 36.4727 155.707 35.918C156.59 35.3633 157.574 35.0859 158.66 35.0859C160.387 35.0859 161.719 35.6367 162.656 36.7383C163.602 37.8398 164.074 39.3984 164.074 41.4141V42.5625H155.789C155.875 43.6094 156.223 44.4375 156.832 45.0469C157.449 45.6562 158.223 45.9609 159.152 45.9609C160.457 45.9609 161.52 45.4336 162.34 44.3789L163.875 45.8438C163.367 46.6016 162.688 47.1914 161.836 47.6133C160.992 48.0273 160.043 48.2344 158.988 48.2344ZM158.648 37.3711C157.867 37.3711 157.234 37.6445 156.75 38.1914C156.273 38.7383 155.969 39.5 155.836 40.4766H161.262V40.2656C161.199 39.3125 160.945 38.5938 160.5 38.1094C160.055 37.6172 159.438 37.3711 158.648 37.3711ZM172.934 37.9219C172.559 37.8594 172.172 37.8281 171.773 37.8281C170.469 37.8281 169.59 38.3281 169.137 39.3281V48H166.289V35.3203H169.008L169.078 36.7383C169.766 35.6367 170.719 35.0859 171.938 35.0859C172.344 35.0859 172.68 35.1406 172.945 35.25L172.934 37.9219ZM183.738 48H180.891V35.3203H183.738V48ZM180.715 32.0273C180.715 31.5898 180.852 31.2266 181.125 30.9375C181.406 30.6484 181.805 30.5039 182.32 30.5039C182.836 30.5039 183.234 30.6484 183.516 30.9375C183.797 31.2266 183.938 31.5898 183.938 32.0273C183.938 32.457 183.797 32.8164 183.516 33.1055C183.234 33.3867 182.836 33.5273 182.32 33.5273C181.805 33.5273 181.406 33.3867 181.125 33.1055C180.852 32.8164 180.715 32.457 180.715 32.0273ZM189.492 35.3203L189.574 36.7852C190.512 35.6523 191.742 35.0859 193.266 35.0859C195.906 35.0859 197.25 36.5977 197.297 39.6211V48H194.449V39.7852C194.449 38.9805 194.273 38.3867 193.922 38.0039C193.578 37.6133 193.012 37.418 192.223 37.418C191.074 37.418 190.219 37.9375 189.656 38.9766V48H186.809V35.3203H189.492ZM210.621 43.9219L213.199 35.3203H216.234L211.195 49.9219C210.422 52.0547 209.109 53.1211 207.258 53.1211C206.844 53.1211 206.387 53.0508 205.887 52.9102V50.707L206.426 50.7422C207.145 50.7422 207.684 50.6094 208.043 50.3438C208.41 50.0859 208.699 49.6484 208.91 49.0312L209.32 47.9414L204.867 35.3203H207.938L210.621 43.9219ZM217.16 41.543C217.16 40.3008 217.406 39.1836 217.898 38.1914C218.391 37.1914 219.082 36.4258 219.973 35.8945C220.863 35.3555 221.887 35.0859 223.043 35.0859C224.754 35.0859 226.141 35.6367 227.203 36.7383C228.273 37.8398 228.852 39.3008 228.938 41.1211L228.949 41.7891C228.949 43.0391 228.707 44.1562 228.223 45.1406C227.746 46.125 227.059 46.8867 226.16 47.4258C225.27 47.9648 224.238 48.2344 223.066 48.2344C221.277 48.2344 219.844 47.6406 218.766 46.4531C217.695 45.2578 217.16 43.668 217.16 41.6836V41.543ZM220.008 41.7891C220.008 43.0938 220.277 44.1172 220.816 44.8594C221.355 45.5938 222.105 45.9609 223.066 45.9609C224.027 45.9609 224.773 45.5859 225.305 44.8359C225.844 44.0859 226.113 42.9883 226.113 41.543C226.113 40.2617 225.836 39.2461 225.281 38.4961C224.734 37.7461 223.988 37.3711 223.043 37.3711C222.113 37.3711 221.375 37.7422 220.828 38.4844C220.281 39.2188 220.008 40.3203 220.008 41.7891ZM239.039 46.7578C238.203 47.7422 237.016 48.2344 235.477 48.2344C234.102 48.2344 233.059 47.832 232.348 47.0273C231.645 46.2227 231.293 45.0586 231.293 43.5352V35.3203H234.141V43.5C234.141 45.1094 234.809 45.9141 236.145 45.9141C237.527 45.9141 238.461 45.418 238.945 44.4258V35.3203H241.793V48H239.109L239.039 46.7578ZM251.332 37.9219C250.957 37.8594 250.57 37.8281 250.172 37.8281C248.867 37.8281 247.988 38.3281 247.535 39.3281V48H244.688V35.3203H247.406L247.477 36.7383C248.164 35.6367 249.117 35.0859 250.336 35.0859C250.742 35.0859 251.078 35.1406 251.344 35.25L251.332 37.9219ZM264.316 45.9609C265.027 45.9609 265.617 45.7539 266.086 45.3398C266.555 44.9258 266.805 44.4141 266.836 43.8047H269.52C269.488 44.5938 269.242 45.332 268.781 46.0195C268.32 46.6992 267.695 47.2383 266.906 47.6367C266.117 48.0352 265.266 48.2344 264.352 48.2344C262.578 48.2344 261.172 47.6602 260.133 46.5117C259.094 45.3633 258.574 43.7773 258.574 41.7539V41.4609C258.574 39.5312 259.09 37.9883 260.121 36.832C261.152 35.668 262.559 35.0859 264.34 35.0859C265.848 35.0859 267.074 35.5273 268.02 36.4102C268.973 37.2852 269.473 38.4375 269.52 39.8672H266.836C266.805 39.1406 266.555 38.543 266.086 38.0742C265.625 37.6055 265.035 37.3711 264.316 37.3711C263.395 37.3711 262.684 37.707 262.184 38.3789C261.684 39.043 261.43 40.0547 261.422 41.4141V41.8711C261.422 43.2461 261.668 44.2734 262.16 44.9531C262.66 45.625 263.379 45.9609 264.316 45.9609ZM274.699 48H271.852V35.3203H274.699V48ZM271.676 32.0273C271.676 31.5898 271.812 31.2266 272.086 30.9375C272.367 30.6484 272.766 30.5039 273.281 30.5039C273.797 30.5039 274.195 30.6484 274.477 30.9375C274.758 31.2266 274.898 31.5898 274.898 32.0273C274.898 32.457 274.758 32.8164 274.477 33.1055C274.195 33.3867 273.797 33.5273 273.281 33.5273C272.766 33.5273 272.367 33.3867 272.086 33.1055C271.812 32.8164 271.676 32.457 271.676 32.0273ZM281.379 32.2383V35.3203H283.617V37.4297H281.379V44.5078C281.379 44.9922 281.473 45.3438 281.66 45.5625C281.855 45.7734 282.199 45.8789 282.691 45.8789C283.02 45.8789 283.352 45.8398 283.688 45.7617V47.9648C283.039 48.1445 282.414 48.2344 281.812 48.2344C279.625 48.2344 278.531 47.0273 278.531 44.6133V37.4297H276.445V35.3203H278.531V32.2383H281.379ZM290.238 43.9219L292.816 35.3203H295.852L290.812 49.9219C290.039 52.0547 288.727 53.1211 286.875 53.1211C286.461 53.1211 286.004 53.0508 285.504 52.9102V50.707L286.043 50.7422C286.762 50.7422 287.301 50.6094 287.66 50.3438C288.027 50.0859 288.316 49.6484 288.527 49.0312L288.938 47.9414L284.484 35.3203H287.555L290.238 43.9219Z" fill="#98BEEF" fill-opacity="0.93"/>
</svg>
